<svg xmlns="http://www.w3.org/2000/svg" viewBox="0 0 256 256" style="enable-background:new 0 0 256 256"
  xml:space="preserve">
  <style>
    .st2 {
      fill: none;
      stroke: #6b1d1d;
      stroke-width: .5;
      stroke-miterlimit: 10
    }

    .st3 {
      fill: #3a312a
    }

    .st4 {
      fill: #87796f
    }

    .st12,
    .st7 {
      fill: #fce8cb
    }

    .st12 {
      fill-rule: evenodd;
      clip-rule: evenodd
    }

    .st13 {
      fill: #f5978a
    }

    .st14 {
      fill: #d7e057
    }
  </style>
  <g id="Layer_1">
    <path class="st3"
      d="M128.22 228.962c-55.807 0-101.21-45.402-101.21-101.209 0-25.506 9.519-49.871 26.804-68.605 17.183-18.625 40.499-30.068 65.651-32.225a1.506 1.506 0 0 1 1.623 1.367 1.5 1.5 0 0 1-1.367 1.623C95.317 32.005 72.693 43.11 56.018 61.182c-16.771 18.178-26.008 41.82-26.008 66.57 0 54.153 44.057 98.209 98.21 98.209 54.153 0 98.209-44.057 98.209-98.209 0-51.57-40.269-94.611-91.676-97.988a1.5 1.5 0 1 1 .197-2.993c52.979 3.48 94.479 47.836 94.479 100.981 0 55.808-45.402 101.21-101.209 101.21z" />
    <path class="st7"
      d="M68.496 169.324h38.078V150.96c0-11.192-9.072-20.265-20.265-20.265H72.92v-8.702c-3.703 2.567-7.535 4.082-11.253 4.082-3.567 0-7.331-1.529-11.019-4.127h-.227v8.747H37.024c-11.192 0-20.265 9.072-20.265 20.265v18.364H68.496z" />
    <path class="st3"
      d="M106.574 170.824H68.496a1.5 1.5 0 1 1 0-3h36.578V150.96c0-10.347-8.418-18.765-18.765-18.765H72.92a1.5 1.5 0 0 1-1.5-1.5v-5.982c-3.344 1.901-6.615 2.863-9.753 2.863-3.093 0-6.362-1.013-9.746-3.016v6.135a1.5 1.5 0 0 1-1.5 1.5H37.024c-10.347 0-18.765 8.418-18.765 18.765v16.864h34.934a1.5 1.5 0 1 1 0 3H16.759a1.5 1.5 0 0 1-1.5-1.5V150.96c0-12.001 9.764-21.765 21.765-21.765H48.92v-7.247a1.5 1.5 0 0 1 1.5-1.5h.227c.309 0 .611.096.864.274 3.63 2.557 7.046 3.854 10.155 3.854 3.249 0 6.748-1.284 10.399-3.815a1.501 1.501 0 0 1 2.354 1.233v7.202h11.889c12.001 0 21.765 9.764 21.765 21.765v18.364a1.499 1.499 0 0 1-1.499 1.499z" />
    <path
      d="M68.496 169.326h38.078v-18.372c0-11.193-9.072-20.266-20.265-20.266h-3.203l.083.061-13.926 18.47-7.187-5.415-7.187 5.415-13.926-18.47.083-.061h-4.021c-11.193 0-20.265 9.073-20.265 20.266v18.372h51.736z"
      style="fill:#8ac6dd" />
    <path class="st3"
      d="M106.574 170.826H68.496a1.5 1.5 0 1 1 0-3h36.578v-16.872c0-10.348-8.418-18.766-18.765-18.766h-2.326L70.46 150.123c-.5.66-1.44.792-2.1.295l-6.284-4.734-6.284 4.734a1.502 1.502 0 0 1-2.1-.295l-13.523-17.934h-3.144c-10.347 0-18.765 8.418-18.765 18.766v16.872h34.934a1.5 1.5 0 1 1 0 3H16.759a1.5 1.5 0 0 1-1.5-1.5v-18.372c0-12.002 9.764-21.766 21.765-21.766h4.021a1.5 1.5 0 0 1 1.425 1.031l.02.066 12.693 16.834 5.989-4.512a1.502 1.502 0 0 1 1.805 0l5.989 4.512 12.693-16.834.02-.066a1.5 1.5 0 0 1 1.425-1.031h3.204c12.001 0 21.765 9.764 21.765 21.766v18.372a1.499 1.499 0 0 1-1.499 1.499z" />
    <circle transform="rotate(-48.272 26.867 80.458)" class="st12" cx="26.869" cy="80.459" r="7.974" />
    <path class="st3"
      d="M26.869 89.933c-5.224 0-9.474-4.25-9.474-9.474s4.25-9.474 9.474-9.474 9.474 4.25 9.474 9.474-4.25 9.474-9.474 9.474zm0-15.948a6.481 6.481 0 0 0-6.474 6.474 6.482 6.482 0 0 0 6.474 6.474 6.482 6.482 0 0 0 6.474-6.474 6.482 6.482 0 0 0-6.474-6.474z" />
    <path class="st12" d="M104.44 80.459a7.974 7.974 0 1 1-15.948 0 7.974 7.974 0 0 1 15.948 0z" />
    <path class="st3"
      d="M96.467 89.933c-5.224 0-9.474-4.25-9.474-9.474s4.25-9.474 9.474-9.474 9.474 4.25 9.474 9.474c-.001 5.224-4.251 9.474-9.474 9.474zm0-15.948a6.481 6.481 0 0 0-6.474 6.474 6.482 6.482 0 0 0 6.474 6.474 6.482 6.482 0 0 0 6.474-6.474 6.483 6.483 0 0 0-6.474-6.474z" />
    <path class="st7"
      d="M97.016 76.589c0 19.522-18.802 49.488-35.349 49.488-15.795 0-35.349-29.966-35.349-49.488 0-19.523 15.826-35.349 35.349-35.349 19.523 0 35.349 15.826 35.349 35.349z" />
    <path class="st3"
      d="M61.667 127.577c-7.845 0-16.896-6.587-24.831-18.07-7.413-10.727-12.018-23.34-12.018-32.917 0-20.319 16.53-36.849 36.849-36.849 20.319 0 36.849 16.53 36.849 36.849 0 9.684-4.495 22.293-11.73 32.91-7.83 11.487-16.985 18.077-25.119 18.077zm0-84.837c-18.664 0-33.849 15.185-33.849 33.849 0 18.234 18.91 47.988 33.849 47.988 7.021 0 15.484-6.269 22.64-16.768 6.914-10.145 11.209-22.107 11.209-31.22.001-18.665-15.184-33.849-33.849-33.849z" />
    <path class="st3"
      d="M52.638 76.19a3.45 3.45 0 1 1-6.9 0 3.45 3.45 0 0 1 6.9 0zM77.598 76.19a3.45 3.45 0 1 1-6.9 0 3.45 3.45 0 0 1 6.9 0z" />
    <path class="st13"
      d="M48.235 86.447c0 2.454-2.661 4.443-5.944 4.443-3.282 0-5.943-1.989-5.943-4.443 0-2.454 2.661-4.443 5.943-4.443 3.283 0 5.944 1.989 5.944 4.443zM86.987 86.447c0 2.454-2.661 4.443-5.943 4.443-3.282 0-5.943-1.989-5.943-4.443 0-2.454 2.661-4.443 5.943-4.443 3.282 0 5.943 1.989 5.943 4.443z" />
    <path class="st4"
      d="M62.076 33.438c-20.206 0-36.587 15.661-36.587 34.98 0 2.044.37 3.568 1.057 5.471.324.897 5.563-1.968 6.009-2.283 2.231-1.571 4.054-3.699 5.416-6.053a20.694 20.694 0 0 0 1.411-2.97c1.206-3.178 4.483-12.02 7.81-11.326 4.462.93 9.519 1.456 14.883 1.456 5.365 0 10.422-.526 14.883-1.456 3.327-.694 6.604 8.148 7.81 11.326.378.996.848 1.992 1.411 2.971 2.251 3.893 6.053 7.6 10.677 8.274.012-.224.294-.3.504-.376 1.514-.55 1.302-3.821 1.302-5.035.001-19.318-16.38-34.979-36.586-34.979z" />
    <path class="st3"
      d="M26.829 75.544a1.742 1.742 0 0 1-1.694-1.145c-.688-1.905-1.146-3.652-1.146-5.98 0-20.115 17.086-36.481 38.087-36.481 21.001 0 38.087 16.365 38.087 36.48l.004.387c.026 1.788.075 5.091-2.184 6.016a1.51 1.51 0 0 1-1.342.493c-4.481-.654-8.877-4.021-11.759-9.008a22.176 22.176 0 0 1-1.515-3.188l-.077-.202c-3.826-10.094-5.689-10.254-6.025-10.188-4.736.987-9.847 1.487-15.189 1.487-5.343 0-10.454-.5-15.189-1.487-.335-.067-2.199.093-6.025 10.188l-.077.202a22.215 22.215 0 0 1-1.514 3.187c-1.541 2.663-3.565 4.92-5.853 6.531-.044.029-4.375 2.708-6.589 2.708zm35.247-40.606c-19.347 0-35.087 15.019-35.087 33.481 0 1.516.225 2.684.624 3.953 1.279-.467 3.552-1.643 4.09-1.999 1.924-1.354 3.646-3.283 4.97-5.569.512-.888.952-1.814 1.307-2.751l.076-.2c2.559-6.754 5.473-12.898 9.443-12.062 4.535.945 9.44 1.424 14.577 1.424 5.138 0 10.043-.479 14.577-1.424 3.97-.826 6.883 5.308 9.443 12.062l.076.2c.355.937.795 1.863 1.309 2.754 2.278 3.94 5.579 6.666 8.937 7.417.117-.06.245-.115.387-.165.167-.173.397-.9.363-3.21l-.004-.431c-.001-18.461-15.741-33.48-35.088-33.48z" />
    <path transform="rotate(-37.003 51.535 137.254)" class="st4" d="M47.017 125.698h9.037v23.132h-9.037z" />
    <path class="st3"
      d="M54.89 150.72c-.455 0-.904-.206-1.199-.598l-13.922-18.473a1.497 1.497 0 0 1 .294-2.1l7.217-5.438a1.499 1.499 0 0 1 2.1.294l13.922 18.474a1.5 1.5 0 0 1-.295 2.101l-7.216 5.438c-.27.203-.587.302-.901.302zm-11.823-19.678 12.117 16.077 4.821-3.633-12.116-16.078-4.822 3.634z" />
    <path transform="rotate(-142.997 72.619 137.262)" class="st4" d="M68.097 125.698h9.037v23.132h-9.037z" />
    <path class="st3"
      d="M69.262 150.72c-.314 0-.631-.099-.902-.302l-7.217-5.438a1.496 1.496 0 0 1-.295-2.1l13.922-18.474a1.495 1.495 0 0 1 2.1-.294l7.217 5.438a1.5 1.5 0 0 1 .295 2.101L70.46 150.124c-.294.39-.743.596-1.198.596zm-5.115-7.234 4.821 3.633 12.116-16.077-4.821-3.633-12.116 16.077zM33.582 170.826a1.5 1.5 0 0 1-1.5-1.5v-14.515a1.5 1.5 0 1 1 3 0v14.515a1.5 1.5 0 0 1-1.5 1.5zM90.568 170.826a1.5 1.5 0 0 1-1.5-1.5v-14.515a1.5 1.5 0 1 1 3 0v14.515a1.5 1.5 0 0 1-1.5 1.5z" />
    <path class="st4"
      d="M31.765 40.303c6 7.556 13.178 15.611 21.847 18.076 13.963 3.97 38.677-.983 38.677-21.08 0-12.852-10.772-28.384-30.874-16.557-24.918 14.659-39.381-13.52-39.381-.669 0 4.062 1.637 8.113 3.785 11.8l5.946 8.43z" />
    <path class="st3"
      d="M63.383 61.136c-3.687 0-7.195-.466-10.181-1.314-8.913-2.534-16.135-10.43-22.612-18.586-.017-.022-.035-.045-.051-.068l-5.947-8.43a1.826 1.826 0 0 1-.07-.109c-2.685-4.606-3.989-8.713-3.989-12.555 0-1.688.196-3.737 1.728-4.604 1.812-1.028 3.93.245 7.138 2.168 6.358 3.813 17.001 10.196 31.255 1.812 10.798-6.351 18.295-4.696 22.681-2.187 7.222 4.13 10.454 13.039 10.455 20.037 0 7.095-2.966 13.086-8.578 17.325-6.058 4.574-14.313 6.511-21.829 6.511zM32.966 39.403c6.158 7.751 12.971 15.233 21.056 17.532 8.358 2.377 21.134 1.523 29.381-4.706 4.901-3.702 7.386-8.726 7.386-14.931 0-6.131-2.766-13.899-8.944-17.433-5.302-3.032-12.104-2.282-19.67 2.169-15.788 9.288-27.844 2.059-34.32-1.825-1.516-.909-3.38-2.027-4.089-2.095-.082.192-.233.715-.233 1.958 0 3.282 1.161 6.877 3.549 10.989l5.884 8.342zM61.666 106.761c-5.189 0-8.931-2.333-11.122-6.935a1.5 1.5 0 0 1 2.709-1.289c1.696 3.563 4.37 5.224 8.413 5.224 5.103 0 7.702-3.339 8.363-5.105a1.5 1.5 0 0 1 2.81 1.052c-1.273 3.397-5.311 7.053-11.173 7.053z" />
    <path class="st7"
      d="M239.24 150.96v18.364h-89.814V150.96c0-11.193 9.072-20.265 20.265-20.265h13.397v-8.747h.227c3.688 2.598 7.452 4.128 11.019 4.128 3.718 0 7.55-1.515 11.253-4.082v8.701h13.389c11.192 0 20.264 9.072 20.264 20.265z" />
    <path class="st3"
      d="M239.24 170.824h-89.814a1.5 1.5 0 0 1-1.5-1.5V150.96c0-12.001 9.764-21.765 21.765-21.765h11.896v-7.247a1.5 1.5 0 0 1 1.5-1.5h.227c.309 0 .611.096.864.274 3.63 2.558 7.047 3.854 10.155 3.854 3.249 0 6.748-1.284 10.399-3.815a1.501 1.501 0 0 1 2.354 1.233v7.202h11.889c12.002 0 21.765 9.764 21.765 21.765v18.364a1.5 1.5 0 0 1-1.5 1.499zm-88.314-3h86.814V150.96c0-10.347-8.418-18.765-18.765-18.765h-13.389a1.5 1.5 0 0 1-1.5-1.5v-5.982c-3.344 1.901-6.615 2.863-9.753 2.863-3.092 0-6.361-1.013-9.746-3.016v6.135a1.5 1.5 0 0 1-1.5 1.5h-13.396c-10.347 0-18.765 8.418-18.765 18.765v16.864z" />
    <path class="st14"
      d="M239.241 150.954v18.372h-89.814v-18.372c0-11.193 9.072-20.265 20.265-20.265h4.021l-.083.061 13.926 18.47 7.186-5.415 7.187 5.415 13.926-18.47-.083-.061h3.203c11.193 0 20.266 9.073 20.266 20.265z" />
    <path class="st3"
      d="M239.241 170.826h-89.814a1.5 1.5 0 0 1-1.5-1.5v-18.372c0-12.001 9.764-21.765 21.765-21.765h4.021a1.5 1.5 0 0 1 1.426 1.035l.018.06 12.694 16.835 5.989-4.512a1.502 1.502 0 0 1 1.805 0l5.99 4.512 12.693-16.834a1.501 1.501 0 0 1 1.445-1.096h3.204c12.001 0 21.765 9.764 21.765 21.765v18.372a1.502 1.502 0 0 1-1.501 1.5zm-88.315-3h86.814v-16.872c0-10.347-8.418-18.765-18.765-18.765h-2.327l-13.522 17.934c-.5.66-1.44.792-2.1.295l-6.285-4.734-6.284 4.734a1.502 1.502 0 0 1-2.1-.295l-13.522-17.934h-3.145c-10.347 0-18.765 8.418-18.765 18.765v16.872z" />
    <circle transform="rotate(-22.384 159.549 80.465)" class="st12" cx="159.536" cy="80.459" r="7.974" />
    <path class="st3"
      d="M159.536 89.933c-5.224 0-9.474-4.25-9.474-9.474s4.25-9.474 9.474-9.474 9.474 4.25 9.474 9.474c-.001 5.224-4.251 9.474-9.474 9.474zm0-15.948a6.482 6.482 0 0 0-6.474 6.474 6.482 6.482 0 0 0 6.474 6.474 6.482 6.482 0 0 0 6.474-6.474 6.483 6.483 0 0 0-6.474-6.474z" />
    <circle transform="rotate(-48.036 229.127 80.455)" class="st12" cx="229.133" cy="80.459" r="7.974" />
    <path class="st3"
      d="M229.133 89.933c-5.224 0-9.474-4.25-9.474-9.474s4.25-9.474 9.474-9.474 9.474 4.25 9.474 9.474-4.25 9.474-9.474 9.474zm0-15.948a6.481 6.481 0 0 0-6.474 6.474 6.482 6.482 0 0 0 6.474 6.474 6.482 6.482 0 0 0 6.474-6.474 6.482 6.482 0 0 0-6.474-6.474z" />
    <path class="st7"
      d="M229.683 76.589c0 19.522-18.802 49.488-35.349 49.488-15.795 0-35.349-29.966-35.349-49.488 0-19.523 15.826-35.349 35.349-35.349 19.523 0 35.349 15.826 35.349 35.349z" />
    <path class="st3"
      d="M194.334 127.577c-7.845 0-16.896-6.587-24.832-18.07-7.413-10.727-12.017-23.34-12.017-32.917 0-20.319 16.53-36.849 36.849-36.849 20.318 0 36.849 16.53 36.849 36.849 0 9.684-4.495 22.293-11.73 32.91-7.83 11.487-16.985 18.077-25.119 18.077zm0-84.837c-18.665 0-33.849 15.185-33.849 33.849 0 18.234 18.91 47.988 33.849 47.988 7.021 0 15.484-6.269 22.64-16.768 6.914-10.145 11.208-22.107 11.208-31.22.001-18.665-15.184-33.849-33.848-33.849z" />
    <path class="st3"
      d="M185.304 76.19a3.45 3.45 0 1 1-6.9 0 3.45 3.45 0 0 1 6.9 0zM210.265 76.19a3.45 3.45 0 1 1-6.9 0 3.45 3.45 0 0 1 6.9 0z" />
    <path class="st13"
      d="M180.902 86.447c0 2.454-2.661 4.443-5.943 4.443-3.282 0-5.943-1.989-5.943-4.443 0-2.454 2.661-4.443 5.943-4.443 3.282 0 5.943 1.989 5.943 4.443zM219.653 86.447c0 2.454-2.661 4.443-5.943 4.443-3.282 0-5.943-1.989-5.943-4.443 0-2.454 2.661-4.443 5.943-4.443 3.282 0 5.943 1.989 5.943 4.443z" />
    <path class="st4"
      d="M194.742 33.438c-20.206 0-36.587 15.661-36.587 34.98 0 2.044.37 3.568 1.057 5.471.324.897 5.563-1.968 6.009-2.283 2.231-1.571 4.054-3.699 5.416-6.053a20.694 20.694 0 0 0 1.411-2.97c1.206-3.178 4.483-12.02 7.81-11.326 4.462.93 9.519 1.456 14.883 1.456 5.365 0 10.422-.526 14.883-1.456 3.327-.694 6.604 8.148 7.81 11.326.378.996.848 1.992 1.411 2.971 2.25 3.893 6.052 7.6 10.677 8.274.011-.224.294-.3.504-.376 1.514-.55 1.301-3.821 1.301-5.035.002-19.318-16.378-34.979-36.585-34.979z" />
    <path class="st3"
      d="M159.495 75.544a1.739 1.739 0 0 1-1.693-1.144c-.688-1.904-1.146-3.65-1.146-5.98 0-20.116 17.086-36.481 38.087-36.481s38.087 16.365 38.087 36.48l.004.387c.026 1.788.075 5.091-2.184 6.016a1.503 1.503 0 0 1-1.342.493c-4.481-.654-8.877-4.021-11.759-9.008a22.176 22.176 0 0 1-1.515-3.188l-.077-.202c-3.826-10.094-5.694-10.254-6.025-10.188-4.736.987-9.847 1.487-15.189 1.487-5.343 0-10.454-.5-15.189-1.487-.331-.062-2.2.094-6.026 10.191l-.075.198a22.276 22.276 0 0 1-1.514 3.187c-1.541 2.663-3.564 4.92-5.852 6.531-.046.029-4.381 2.708-6.592 2.708zm35.247-40.606c-19.347 0-35.087 15.019-35.087 33.481.001 1.517.225 2.685.625 3.953 1.279-.467 3.552-1.644 4.091-1.999 1.923-1.354 3.645-3.283 4.969-5.569.511-.887.952-1.814 1.308-2.751l.075-.196c2.56-6.755 5.477-12.89 9.443-12.065 4.535.945 9.439 1.424 14.577 1.424s10.042-.479 14.577-1.424c3.969-.826 6.883 5.308 9.443 12.062l.076.2c.355.937.795 1.863 1.309 2.754 2.278 3.94 5.579 6.666 8.937 7.417.117-.06.245-.115.387-.165.167-.173.397-.9.363-3.21l-.004-.431c-.001-18.462-15.742-33.481-35.089-33.481z" />
    <path transform="rotate(-37.003 184.19 137.251)" class="st4" d="M179.684 125.698h9.037v23.132h-9.037z" />
    <path class="st3"
      d="M187.556 150.72c-.455 0-.904-.206-1.199-.598l-13.922-18.473a1.497 1.497 0 0 1 .295-2.1l7.217-5.438a1.499 1.499 0 0 1 2.1.294l13.922 18.474a1.5 1.5 0 0 1-.295 2.101l-7.216 5.438a1.499 1.499 0 0 1-.902.302zm-11.823-19.678 12.117 16.077 4.821-3.633-12.116-16.078-4.822 3.634z" />
    <path transform="rotate(-142.997 205.283 137.26)" class="st4" d="M200.764 125.698h9.036v23.132h-9.036z" />
    <path class="st3"
      d="M201.929 150.72c-.314 0-.631-.099-.902-.302l-7.217-5.438a1.496 1.496 0 0 1-.295-2.1l13.922-18.474a1.495 1.495 0 0 1 2.1-.294l7.216 5.438a1.5 1.5 0 0 1 .295 2.101l-13.922 18.473c-.293.39-.743.596-1.197.596zm-5.116-7.234 4.821 3.633 12.116-16.077-4.821-3.633-12.116 16.077zM166.249 170.826a1.5 1.5 0 0 1-1.5-1.5v-14.515a1.5 1.5 0 1 1 3 0v14.515a1.5 1.5 0 0 1-1.5 1.5zM223.235 170.826a1.5 1.5 0 0 1-1.5-1.5v-14.515a1.5 1.5 0 1 1 3 0v14.515a1.5 1.5 0 0 1-1.5 1.5zM194.333 106.761c-5.189 0-8.931-2.333-11.122-6.935a1.5 1.5 0 0 1 2.709-1.289c1.696 3.563 4.37 5.224 8.413 5.224 5.102 0 7.702-3.339 8.363-5.105a1.5 1.5 0 0 1 2.81 1.052c-1.273 3.397-5.312 7.053-11.173 7.053z" />
    <path
      d="M233.533 39.223s-17.087 17.939-38.165 17.939S166.7 49.13 166.7 39.223s7.59-17.939 28.668-17.939 38.165 17.939 38.165 17.939z"
      style="fill-rule:evenodd;clip-rule:evenodd;fill:#87796f" />
    <path class="st3"
      d="M195.368 58.663c-26.249 0-30.168-12.179-30.168-19.44 0-7.26 3.919-19.439 30.168-19.439 21.474 0 38.536 17.653 39.251 18.405a1.5 1.5 0 0 1 0 2.069c-.716.752-17.777 18.405-39.251 18.405zm0-35.879c-17.773 0-27.168 5.685-27.168 16.439 0 10.755 9.395 16.44 27.168 16.44 17.297 0 32.034-12.682 36.02-16.438-3.992-3.757-18.75-16.441-36.02-16.441z" />
    <path class="st4" d="M89.784 140.254h75.867v86.835H89.784z" />
    <path class="st3"
      d="M165.65 228.589H89.784a1.5 1.5 0 0 1-1.5-1.5v-86.835a1.5 1.5 0 0 1 1.5-1.5h75.866a1.5 1.5 0 0 1 1.5 1.5v86.835a1.5 1.5 0 0 1-1.5 1.5zm-74.366-3h72.866v-83.835H91.284v83.835z" />
    <path class="st7"
      d="M173.126 239.468v-9.191c0-11.193-9.072-20.265-20.265-20.265h-13.389v-8.701c-3.703 2.567-7.535 4.082-11.253 4.082-3.567 0-7.33-1.53-11.019-4.128h-.227v8.747h-13.397c-11.193 0-20.265 9.072-20.265 20.265v9.191h89.815z" />
    <path class="st3"
      d="M173.126 240.968H83.312a1.5 1.5 0 0 1-1.5-1.5v-9.191c0-12.001 9.764-21.765 21.765-21.765h11.896v-7.247a1.5 1.5 0 0 1 1.5-1.5h.227c.309 0 .611.096.864.273 3.631 2.558 7.047 3.854 10.155 3.854 3.249 0 6.748-1.283 10.399-3.814a1.5 1.5 0 0 1 2.354 1.232v7.201h11.889c12.001 0 21.765 9.764 21.765 21.765v9.191a1.5 1.5 0 0 1-1.5 1.501zm-88.314-3h86.814v-7.691c0-10.347-8.418-18.765-18.765-18.765h-13.389a1.5 1.5 0 0 1-1.5-1.5v-5.982c-3.344 1.901-6.615 2.863-9.753 2.863-3.092 0-6.361-1.014-9.746-3.016v6.135a1.5 1.5 0 0 1-1.5 1.5h-13.396c-10.347 0-18.765 8.418-18.765 18.765v7.691z" />
    <path
      d="M173.127 239.468v-9.197c0-11.193-9.072-20.265-20.265-20.265h-3.203l.083.061-13.926 18.47-7.187-5.415-7.187 5.415-13.927-18.47.083-.061h-4.021c-11.192 0-20.265 9.073-20.265 20.265v9.197h89.815z"
      style="fill:#f16c7a" />
    <path class="st3"
      d="M173.127 240.968H83.312a1.5 1.5 0 0 1-1.5-1.5v-9.197c0-12.001 9.764-21.765 21.765-21.765h4.021a1.5 1.5 0 0 1 1.426 1.035l.018.06 12.694 16.835 5.989-4.512a1.502 1.502 0 0 1 1.805 0l5.99 4.512 12.693-16.834.017-.059a1.501 1.501 0 0 1 1.427-1.037h3.204c12.002 0 21.765 9.764 21.765 21.765v9.197c.001.828-.67 1.5-1.499 1.5zm-88.315-3h86.815v-7.697c0-10.347-8.418-18.765-18.765-18.765h-2.327l-13.522 17.934a1.503 1.503 0 0 1-2.1.295L128.628 225l-6.284 4.734a1.503 1.503 0 0 1-2.1-.295l-13.522-17.934h-3.145c-10.347 0-18.765 8.418-18.765 18.765v7.698z" />
    <circle transform="rotate(-7.002 93.461 159.836)" class="st12" cx="93.422" cy="159.776" r="7.974" />
    <path class="st3"
      d="M93.422 169.25c-5.224 0-9.474-4.25-9.474-9.474 0-5.225 4.25-9.475 9.474-9.475s9.474 4.25 9.474 9.475c-.001 5.224-4.251 9.474-9.474 9.474zm0-15.948a6.482 6.482 0 0 0-6.474 6.475 6.482 6.482 0 0 0 6.474 6.474 6.482 6.482 0 0 0 6.474-6.474 6.483 6.483 0 0 0-6.474-6.475z" />
    <path class="st12" d="M170.993 159.776a7.974 7.974 0 1 1-15.948 0 7.974 7.974 0 0 1 15.948 0z" />
    <path class="st3"
      d="M163.019 169.25c-5.224 0-9.474-4.25-9.474-9.474 0-5.225 4.25-9.475 9.474-9.475s9.474 4.25 9.474 9.475c0 5.224-4.25 9.474-9.474 9.474zm0-15.948a6.482 6.482 0 0 0-6.474 6.475 6.482 6.482 0 0 0 6.474 6.474 6.482 6.482 0 0 0 6.474-6.474 6.481 6.481 0 0 0-6.474-6.475z" />
    <path class="st7"
      d="M163.569 155.905c0 19.522-18.802 49.488-35.349 49.488-15.795 0-35.349-29.966-35.349-49.488 0-19.523 15.826-35.349 35.349-35.349s35.349 15.827 35.349 35.349z" />
    <path class="st3"
      d="M128.221 206.894c-7.845 0-16.896-6.587-24.831-18.07-7.413-10.727-12.017-23.341-12.017-32.918 0-20.318 16.53-36.849 36.849-36.849s36.849 16.53 36.849 36.849c0 9.684-4.495 22.294-11.729 32.91-7.833 11.489-16.988 18.078-25.121 18.078zm0-84.837c-18.664 0-33.849 15.185-33.849 33.849 0 18.234 18.91 47.988 33.849 47.988 7.021 0 15.484-6.269 22.64-16.768 6.914-10.145 11.209-22.107 11.209-31.221-.001-18.664-15.185-33.848-33.849-33.848z" />
    <path class="st3" d="M119.191 155.506a3.45 3.45 0 1 1-6.9 0 3.45 3.45 0 0 1 6.9 0z" />
    <circle class="st3" cx="140.701" cy="155.506" r="3.45" />
    <path class="st13"
      d="M114.788 165.764c0 2.454-2.661 4.443-5.943 4.443-3.282 0-5.943-1.989-5.943-4.443 0-2.454 2.661-4.443 5.943-4.443 3.282 0 5.943 1.989 5.943 4.443zM153.54 165.764c0 2.454-2.661 4.443-5.943 4.443-3.282 0-5.943-1.989-5.943-4.443 0-2.454 2.661-4.443 5.943-4.443 3.282 0 5.943 1.989 5.943 4.443z" />
    <path transform="rotate(-37.003 118.082 216.563)" class="st4" d="M113.57 205.015h9.037v23.132h-9.037z" />
    <path class="st3"
      d="M121.442 230.036c-.455 0-.904-.206-1.199-.598l-13.922-18.473a1.497 1.497 0 0 1 .294-2.1l7.217-5.438a1.502 1.502 0 0 1 2.101.296l13.922 18.473a1.497 1.497 0 0 1-.295 2.1l-7.217 5.439a1.49 1.49 0 0 1-.901.301zm-11.822-19.678 12.117 16.077 4.821-3.633-12.117-16.077-4.821 3.633z" />
    <path transform="rotate(-142.997 139.172 216.577)" class="st4" d="M134.65 205.015h9.036v23.132h-9.036z" />
    <path class="st3"
      d="M135.815 230.036c-.314 0-.631-.099-.902-.302l-7.217-5.439a1.497 1.497 0 0 1-.294-2.1l13.922-18.473a1.502 1.502 0 0 1 2.101-.296l7.216 5.438a1.5 1.5 0 0 1 .294 2.1l-13.922 18.473a1.492 1.492 0 0 1-1.198.599zm-5.115-7.233 4.821 3.633 12.116-16.077-4.821-3.633-12.116 16.077zM128.22 186.078c-5.19 0-8.932-2.333-11.122-6.936a1.5 1.5 0 0 1 2.709-1.289c1.696 3.564 4.37 5.225 8.413 5.225 5.102 0 7.701-3.34 8.362-5.106a1.5 1.5 0 0 1 2.81 1.053c-1.272 3.397-5.311 7.053-11.172 7.053z" />
    <path class="st4"
      d="M168.45 142.902c0 3.637-.471 7.163-1.362 10.519-9.054-4.384-17.666-9.765-25.645-15.849-2.341-1.782-4.645-3.637-6.846-5.604-2.701-2.38-5.256-4.946-7.56-7.725-5.013-6.062-8.693-13.025-11.807-20.277A40.276 40.276 0 0 1 127.714 102c11.652 0 22.164 4.916 29.591 12.796a40.814 40.814 0 0 1 11.145 28.106z" />
    <path class="st3"
      d="M167.088 154.922a1.5 1.5 0 0 1-.654-.15c-8.923-4.32-17.637-9.706-25.901-16.007-2.639-2.008-4.908-3.865-6.936-5.678-2.896-2.551-5.494-5.206-7.715-7.886-4.495-5.435-8.317-11.994-12.031-20.643a1.502 1.502 0 0 1 .914-2.018 41.768 41.768 0 0 1 12.948-2.04c11.722 0 22.619 4.712 30.683 13.268 7.449 7.896 11.552 18.243 11.552 29.135 0 3.706-.475 7.375-1.412 10.904a1.501 1.501 0 0 1-1.448 1.115zm-49.807-50.008c3.385 7.621 6.874 13.49 10.912 18.373 2.121 2.559 4.609 5.101 7.396 7.555 1.976 1.767 4.186 3.575 6.762 5.536 7.587 5.785 15.558 10.781 23.717 14.868.585-2.722.882-5.521.882-8.345 0-10.123-3.812-19.739-10.735-27.077-7.492-7.949-17.613-12.326-28.5-12.326a38.976 38.976 0 0 0-10.434 1.416z" />
    <path class="st4"
      d="M157.305 114.796c-7.008 6.416-14.633 12.094-22.708 17.173-14.317 9.011-30.018 16.123-46.086 22.044a40.97 40.97 0 0 1-1.524-11.111c0-18.215 11.858-33.65 28.244-38.936A40.276 40.276 0 0 1 127.715 102c11.652 0 22.163 4.916 29.59 12.796z" />
    <path class="st3"
      d="M88.511 155.513a1.503 1.503 0 0 1-1.444-1.094 42.52 42.52 0 0 1-1.58-11.517c0-18.493 11.768-34.713 29.283-40.364a41.79 41.79 0 0 1 12.945-2.039c11.722 0 22.619 4.712 30.683 13.268a1.5 1.5 0 0 1-.079 2.135c-6.755 6.185-14.468 12.018-22.923 17.335-13.142 8.272-28.309 15.528-46.367 22.182a1.473 1.473 0 0 1-.518.094zm39.204-52.013c-4.116 0-8.16.637-12.021 1.893-16.275 5.25-27.207 20.324-27.207 37.51a39.6 39.6 0 0 0 1.06 9.126c17.177-6.422 31.665-13.407 44.252-21.329 7.827-4.923 15.001-10.29 21.345-15.968-7.372-7.256-17.053-11.232-27.429-11.232z" />
    <path class="st14"
      d="M47.691 201.74s3.408 12.659 13.222 13.246c0 0-13.1 4.525-13.321 14.202 0 0-2.579-13.572-12.925-14.059-.001.001 12.05-1.825 13.024-13.389z" />
    <path class="st3"
      d="M47.59 230.689a1.501 1.501 0 0 1-1.472-1.217c-.024-.125-2.495-12.418-11.523-12.844a1.5 1.5 0 0 1-.154-2.982c.441-.068 10.894-1.817 11.755-12.032a1.498 1.498 0 0 1 2.942-.265c.032.116 3.259 11.626 11.864 12.142a1.501 1.501 0 0 1 .402 2.914c-.121.042-12.118 4.311-12.313 12.819a1.5 1.5 0 0 1-1.375 1.46c-.042.002-.084.005-.126.005zm-7.741-15.73c3.879 1.969 6.23 5.746 7.587 8.877 2.027-4.022 5.942-6.787 8.949-8.428-4.135-1.843-6.783-5.651-8.334-8.723-1.793 4.36-5.271 6.869-8.202 8.274z" />
    <path class="st14"
      d="M25.992 218.721s2.411 8.954 9.352 9.369c0 0-9.266 3.201-9.422 10.046 0 0-1.824-9.6-9.142-9.944-.001 0 8.523-1.292 9.212-9.471z" />
    <path class="st3"
      d="M25.92 239.636a1.5 1.5 0 0 1-1.473-1.22c-.016-.082-1.704-8.442-7.739-8.727a1.5 1.5 0 0 1-.154-2.982c.296-.047 7.364-1.242 7.942-8.113a1.5 1.5 0 0 1 2.942-.266c.021.079 2.228 7.92 7.994 8.265a1.499 1.499 0 0 1 .4 2.915c-.081.028-8.282 2.953-8.413 8.662a1.5 1.5 0 0 1-1.499 1.466zm-4.518-11.528c2.106 1.332 3.523 3.395 4.447 5.279 1.376-2.232 3.515-3.872 5.365-4.973-2.287-1.268-3.884-3.35-4.941-5.224-1.174 2.289-3.016 3.877-4.871 4.918z" />
    <path class="st14"
      d="M25.992 192.064s2.411 8.954 9.352 9.369c0 0-9.266 3.201-9.422 10.045 0 0-1.824-9.6-9.142-9.944-.001 0 8.523-1.291 9.212-9.47z" />
    <path class="st3"
      d="M25.92 212.979a1.5 1.5 0 0 1-1.472-1.22c-.016-.082-1.704-8.442-7.739-8.727a1.5 1.5 0 0 1-.155-2.982c.296-.047 7.364-1.243 7.942-8.113a1.5 1.5 0 0 1 2.942-.266c.021.079 2.228 7.92 7.994 8.265a1.499 1.499 0 0 1 .4 2.915c-.081.028-8.282 2.953-8.413 8.662a1.5 1.5 0 0 1-1.499 1.466zm-4.518-11.529c2.107 1.333 3.523 3.395 4.447 5.28 1.376-2.232 3.515-3.872 5.365-4.973-2.287-1.268-3.884-3.35-4.941-5.224-1.174 2.288-3.016 3.876-4.871 4.917z" />
    <path
      d="M88.28 167.722v.1H72.57v-.1c-2.6-1.69-4.33-4.62-4.33-7.95a9.44 9.44 0 0 1 2.79-6.7c-.24-.96-.45-1.93-.61-2.91.02-.01.03-.03.04-.04l.48-.63 13.04-17.3h2.33c.19 0 .37.02.55.02-.89 3.45-1.37 7.05-1.37 10.74 0 3.43.43 6.82 1.25 10.12a9.44 9.44 0 0 0-2.79 6.7c0 3.33 1.73 6.26 4.33 7.95z"
      style="fill:#6ca8bf" />
    <path
      d="M237.74 150.952v16.87h-13v-13.01c0-.83-.68-1.5-1.5-1.5-.5 0-.94.24-1.21.62v-2.98c0-6.33-3.15-11.94-7.97-15.33l2.59-3.43h2.33c10.34 0 18.76 8.41 18.76 18.76z"
      style="fill:#b9c239" />
    <path
      d="M171.63 230.272v7.7h-15.71v-7.7c0-6.33-3.15-11.94-7.97-15.34l2.59-3.43h2.32c10.35 0 18.77 8.42 18.77 18.77z"
      style="fill:#d34e5c" />
  </g>
</svg>
