            <svg version="1.1" id="Icon_Set" xmlns="http://www.w3.org/2000/svg" x="0" y="0" viewBox="0 0 512 512"
              style="enable-background:new 0 0 512 512" xml:space="preserve">
              <style>
                .st0 {
                  fill: #4c4372
                }

                .st2 {
                  fill: #fd919e
                }

                .st3 {
                  fill: #e8677d
                }

                .st4 {
                  fill: #d3e6f8
                }

                .st5 {
                  fill: #a4cff2
                }

                .st6 {
                  fill: #7babf1
                }
              </style>
              <circle cx="256" cy="256" r="207" style="fill:#f0c48a" />
              <path class="st5"
                d="M431.732 506.138H80.268V395.06c0-21.105 17.109-38.215 38.215-38.215h275.035c21.105 0 38.215 17.109 38.215 38.215v111.078z" />
              <path class="st4" d="M152.913 485.26h42.772v20.878h-42.772zM316.314 485.26h42.771v20.878h-42.771z" />
              <path class="st5" d="M344.662 485.26h14.424v20.878h-14.424zM181.261 485.26h14.425v20.878h-14.425z" />
              <path style="fill:#fff" d="M234.923 506.138h42.153l42.773-83.578v-55.622H199.991v65.657z" />
              <path class="st4" d="M275.152 380.681v50.81L256 506.138h21.076l23.482-74.647v-64.553h-25.406z" />
              <path class="st6" d="M406.328 359.053v147.085h25.404V395.06c0-16.612-10.601-30.741-25.404-36.007z" />
              <path class="st0"
                d="M431.732 512H80.268a5.863 5.863 0 0 1-5.863-5.862V395.06c0-24.305 19.773-44.078 44.078-44.078h275.035c24.304 0 44.078 19.773 44.078 44.078v111.078a5.863 5.863 0 0 1-5.864 5.862zM86.13 500.274h339.74V395.06c0-17.839-14.514-32.353-32.352-32.353H118.482c-17.84 0-32.353 14.514-32.353 32.353v105.214z" />
              <path class="st4"
                d="M300.558 366.118v-78.564h-89.115v78.564c0 24.608 19.948 44.558 44.558 44.558 24.607 0 44.557-19.949 44.557-44.558z" />
              <path class="st5"
                d="M275.152 406.355c15.021-7.162 25.403-22.483 25.404-40.233v-78.568h-25.404v118.801z" />
              <path class="st0"
                d="M256 416.538c-27.802 0-50.42-22.618-50.42-50.421v-78.563a5.863 5.863 0 0 1 5.862-5.863h89.114a5.863 5.863 0 0 1 5.863 5.863v78.563c.001 27.803-22.618 50.421-50.419 50.421zm-38.695-123.121v72.7c0 21.337 17.359 38.696 38.695 38.696s38.694-17.359 38.694-38.696v-72.7h-77.389z" />
              <path class="st2"
                d="M365.648 181.316H146.352c-10.094 0-18.277-8.183-18.277-18.276 0-10.094 8.184-18.276 18.277-18.276h219.297c10.094 0 18.276 8.183 18.276 18.276 0 10.094-8.183 18.276-18.277 18.276z" />
              <path class="st3"
                d="M383.869 164.126H128.13c.564 9.586 8.494 17.19 18.222 17.19h219.297c9.726 0 17.656-7.604 18.22-17.19z" />
              <path class="st2"
                d="M256 5.862c-51.248 0-92.793 41.545-92.793 92.793v46.108h185.586V98.655c0-51.248-41.545-92.793-92.793-92.793z" />
              <path class="st3"
                d="M348.793 98.655c0-51.248-41.545-92.793-92.793-92.793-2.129 0-4.24.078-6.333.22 41.767 9.048 73.058 46.208 73.058 90.683v47.999H163.207h185.586V98.655z" />
              <path class="st2"
                d="M256 5.862c-7.25 0-14.306.833-21.077 2.406v136.495h42.153V8.269A92.988 92.988 0 0 0 256 5.862z" />
              <path class="st4"
                d="M256 331.694c-45.329 0-82.075-36.746-82.075-82.074v-68.304h164.149v68.304c0 45.328-36.746 82.074-82.074 82.074z" />
              <path class="st5"
                d="M311.658 249.114c0 41.364-30.604 75.564-70.4 81.234A82.491 82.491 0 0 0 256 331.694c45.328 0 82.074-36.746 82.074-82.074v-68.304h-26.416v67.798z" />
              <path class="st0"
                d="M256 337.558c-48.49 0-87.939-39.449-87.939-87.938v-68.304a5.863 5.863 0 0 1 5.862-5.862h164.151a5.863 5.863 0 0 1 5.862 5.862v68.304c.002 48.488-39.447 87.938-87.936 87.938zm-76.213-150.379v62.44c0 42.024 34.189 76.213 76.213 76.213 42.023 0 76.213-34.188 76.213-76.213v-62.44H179.787zM348.793 150.626H163.207a5.863 5.863 0 0 1-5.863-5.862V98.655C157.344 44.257 201.601 0 256 0c54.398 0 98.655 44.257 98.655 98.655v46.108a5.863 5.863 0 0 1-5.862 5.863zM169.069 138.9h173.86V98.655c0-47.933-38.996-86.93-86.93-86.93s-86.931 38.997-86.931 86.93V138.9z" />
              <path class="st0"
                d="M365.648 187.179H146.351c-13.31 0-24.138-10.828-24.138-24.139 0-13.31 10.828-24.14 24.138-24.14h219.298c13.311 0 24.139 10.829 24.139 24.14-.001 13.311-10.829 24.139-24.14 24.139zm-219.297-36.553c-6.845 0-12.413 5.568-12.413 12.414 0 6.845 5.568 12.413 12.413 12.413h219.298c6.845 0 12.413-5.568 12.413-12.413 0-6.846-5.568-12.414-12.413-12.414H146.351z" />
              <path class="st0"
                d="M234.922 150.626a5.863 5.863 0 0 1-5.862-5.862V10.331a5.863 5.863 0 0 1 11.725 0v134.433a5.863 5.863 0 0 1-5.863 5.862zM277.077 150.626a5.863 5.863 0 0 1-5.862-5.862V10.331a5.863 5.863 0 0 1 11.724 0v134.433a5.861 5.861 0 0 1-5.862 5.862zM136.029 512a5.863 5.863 0 0 1-5.862-5.862V422.56a5.863 5.863 0 1 1 11.725 0v83.578a5.862 5.862 0 0 1-5.863 5.862zM375.971 512a5.863 5.863 0 0 1-5.863-5.862V422.56a5.863 5.863 0 0 1 11.725 0v83.578a5.863 5.863 0 0 1-5.862 5.862z" />
              <path class="st6"
                d="m211.442 331.694-62.063 25.151 35.615 32.587-35.615 21.244 85.544 95.462-23.481-74.647z" />
              <path class="st0"
                d="M234.926 512a5.862 5.862 0 0 1-4.37-1.95l-85.544-95.462a5.863 5.863 0 0 1 1.364-8.947l28.845-17.205-29.799-27.266a5.863 5.863 0 0 1 1.755-9.759l62.063-25.149a5.861 5.861 0 0 1 8.064 5.432v98.896l23.211 73.788a5.867 5.867 0 0 1-5.589 7.622zm-76.431-99.936 62.7 69.97-15.345-48.784a5.867 5.867 0 0 1-.27-1.76v-91.094l-45.391 18.393 28.763 26.316a5.862 5.862 0 0 1-.954 9.361l-29.503 17.598z" />
              <path class="st6"
                d="m300.558 331.694 62.063 25.151-35.616 32.587 35.616 21.244-85.545 95.462 23.482-74.647z" />
              <g>
                <path class="st0"
                  d="M277.074 512a5.863 5.863 0 0 1-5.589-7.623l23.21-73.788v-98.896a5.862 5.862 0 0 1 8.064-5.432l62.064 25.149a5.86 5.86 0 0 1 3.568 4.396 5.86 5.86 0 0 1-1.813 5.363l-29.8 27.266 28.846 17.205a5.863 5.863 0 0 1 1.363 8.947l-85.544 95.462a5.859 5.859 0 0 1-4.369 1.951zm29.346-171.603v91.094c0 .597-.091 1.19-.27 1.76l-15.345 48.783 62.7-69.97-29.503-17.597a5.863 5.863 0 0 1-.954-9.361l28.762-26.316-45.39-18.393zm-5.863 91.093h.01-.01z" />
              </g>
              <g>
                <path class="st0"
                  d="M195.685 512h-42.771a5.863 5.863 0 0 1-5.862-5.862V485.26a5.863 5.863 0 0 1 5.862-5.863h42.771a5.864 5.864 0 0 1 5.863 5.863v20.878a5.863 5.863 0 0 1-5.863 5.862zm-36.91-11.726h31.047v-9.152h-31.047v9.152zM359.086 512h-42.771a5.863 5.863 0 0 1-5.862-5.862V485.26a5.863 5.863 0 0 1 5.862-5.863h42.771a5.863 5.863 0 0 1 5.863 5.863v20.878a5.863 5.863 0 0 1-5.863 5.862zm-36.908-11.726h31.047v-9.152h-31.047v9.152z" />
              </g>
              <g>
                <path class="st0"
                  d="M164.872 491.122a5.863 5.863 0 0 1-5.863-5.862v-29.039a5.864 5.864 0 0 1 11.725 0v29.039a5.863 5.863 0 0 1-5.862 5.862z" />
              </g>
              <g>
                <path class="st0"
                  d="M181.262 491.122a5.863 5.863 0 0 1-5.863-5.862v-14.52a5.863 5.863 0 0 1 11.725 0v14.52a5.863 5.863 0 0 1-5.862 5.862z" />
              </g>
            </svg>
