<svg xmlns="http://www.w3.org/2000/svg" viewBox="0 0 512 512" style="enable-background:new 0 0 512 512"
  xml:space="preserve">
  <path style="fill:#9bcc5c"
    d="M111.242 91.577a9.034 9.034 0 0 1-3.368 2.113c-22.061 7.791-46.943 2.286-63.394-14.031-16.448-16.313-21.996-40.998-14.143-62.88a8.965 8.965 0 0 1 2.13-3.339 9.064 9.064 0 0 1 3.367-2.113c22.064-7.793 46.949-2.286 63.393 14.03 16.451 16.315 22.002 40.998 14.145 62.882a8.927 8.927 0 0 1-2.13 3.338z" />
  <path style="fill:#c6dd76"
    d="M155.587 91.577a9.018 9.018 0 0 0 3.368 2.113c22.061 7.791 46.946 2.286 63.394-14.031 16.445-16.313 21.997-40.998 14.14-62.88a8.886 8.886 0 0 0-2.128-3.339 9.088 9.088 0 0 0-3.365-2.113c-22.064-7.793-46.95-2.286-63.395 14.03-16.448 16.315-22.002 40.998-14.145 62.882a8.942 8.942 0 0 0 2.131 3.338z" />
  <path style="opacity:.1;enable-background:new"
    d="M65.721 79.66C49.273 63.346 43.724 38.661 51.578 16.779a8.965 8.965 0 0 1 2.13-3.339 9.064 9.064 0 0 1 3.367-2.113 61.025 61.025 0 0 1 9.811-2.562c-10.22-1.781-20.931-1.011-31.051 2.562a9.054 9.054 0 0 0-3.367 2.113 9.001 9.001 0 0 0-2.13 3.339c-7.853 21.882-2.305 46.567 14.144 62.881C58.532 93.595 78.73 99.635 98.07 96.252c-12.065-2.103-23.444-7.76-32.349-16.592zM180.193 93.691a9.055 9.055 0 0 1-5.499-5.451c-7.858-21.883-2.303-46.566 14.145-62.882 8.903-8.834 20.28-14.491 32.344-16.592-19.341-3.383-39.54 2.658-53.583 16.592-16.448 16.315-22.002 40.998-14.145 62.882a8.938 8.938 0 0 0 2.131 3.338 9.018 9.018 0 0 0 3.368 2.113c10.118 3.573 20.828 4.342 31.047 2.561a61.146 61.146 0 0 1-9.808-2.561z" />
  <path style="fill:#474949"
    d="M417.298 192.262c0 3.593-2.965 6.269-6.591 6.269l-36.907-21.08c-3.626 0-6.591-2.94-6.591-6.534v-70.569c0-3.593 2.965-6.535 6.591-6.535h36.907c3.626 0 6.591 2.94 6.591 6.535v91.914z" />
  <path style="fill:#87afa3" d="M416.909 484.587h-312.4V194.468L264.354 92.997l152.555 101.471z" />
  <path style="opacity:.1;enable-background:new"
    d="M126.452 452.164V179.9l-21.943 14.568v290.119h312.4v-32.423z" />
  <path style="fill:#ffd267"
    d="M328.098 338.547h47.449v78.409h-47.449zM143.757 338.547h47.449v78.409h-47.449z" />
  <path style="fill:#fff"
    d="M328.098 251.162h47.449v49.131h-47.449zM237.369 251.162h47.449v49.131h-47.449zM143.757 251.162h47.449v49.131h-47.449z" />
  <path style="fill:#ea5653"
    d="M465.391 258.476a19.814 19.814 0 0 1-10.904-3.259L264.138 130.28 67.469 255.372a19.838 19.838 0 0 1-10.664 3.104c-6.773 0-12.999-3.372-16.654-9.018-5.887-9.098-3.21-21.248 5.965-27.084L253.634 90.383a19.87 19.87 0 0 1 10.677-3.104c3.894 0 7.669 1.127 10.915 3.258L476.32 222.528c9.09 5.966 11.59 18.153 5.572 27.165-3.676 5.501-9.843 8.783-16.501 8.783z" />
  <path style="opacity:.1;enable-background:new"
    d="M481.891 228.244c-3.675 5.501-9.842 8.782-16.5 8.782a19.814 19.814 0 0 1-10.904-3.259L264.138 108.83 67.469 233.923a19.838 19.838 0 0 1-10.664 3.104c-6.711 0-12.882-3.313-16.549-8.867-4.117 6.267-4.436 14.605-.104 21.298 3.655 5.647 9.881 9.018 16.654 9.018 3.784 0 7.471-1.072 10.664-3.104L264.14 130.28l190.349 124.937a19.811 19.811 0 0 0 10.904 3.259c6.658 0 12.826-3.282 16.5-8.782 4.484-6.716 4.233-15.19.056-21.543-.022.03-.038.063-.058.093z" />
  <path style="fill:#ea5653" d="M217.339 339.498h85.128v143.757h-85.128z" />
  <path style="fill:#5d897d" d="M71.126 474.164h379.946v30.003H71.126z" />
  <path style="opacity:.1;enable-background:new" d="M71.126 474.164h43.812v30.003H71.126z" />
  <path
    d="M375.546 330.71h-47.453a7.837 7.837 0 0 0-7.837 7.837v78.411a7.837 7.837 0 0 0 7.837 7.837h47.453a7.837 7.837 0 0 0 7.837-7.837v-78.411a7.837 7.837 0 0 0-7.837-7.837zm-7.837 78.412h-31.78v-62.739h31.78v62.739zM191.211 330.71h-47.453a7.837 7.837 0 0 0-7.837 7.837v78.411a7.837 7.837 0 0 0 7.837 7.837h47.453a7.837 7.837 0 0 0 7.837-7.837v-78.411a7.837 7.837 0 0 0-7.837-7.837zm-7.837 78.412h-31.78v-62.739h31.78v62.739zM375.546 243.322h-47.453a7.837 7.837 0 0 0-7.837 7.837v49.136a7.837 7.837 0 0 0 7.837 7.837h47.453a7.837 7.837 0 0 0 7.837-7.837v-49.136a7.837 7.837 0 0 0-7.837-7.837zm-7.837 49.137h-31.78v-33.463h31.78v33.463zM284.824 243.322h-47.453a7.837 7.837 0 0 0-7.837 7.837v49.136a7.837 7.837 0 0 0 7.837 7.837h47.453a7.837 7.837 0 0 0 7.837-7.837v-49.136a7.837 7.837 0 0 0-7.837-7.837zm-7.836 49.137h-31.78v-33.463h31.78v33.463zM191.211 243.322h-47.453a7.837 7.837 0 0 0-7.837 7.837v49.136a7.837 7.837 0 0 0 7.837 7.837h47.453a7.837 7.837 0 0 0 7.837-7.837v-49.136a7.837 7.837 0 0 0-7.837-7.837zm-7.837 49.137h-31.78v-33.463h31.78v33.463zM280.568 388.12a7.837 7.837 0 0 0-7.837 7.837v20.387a7.837 7.837 0 0 0 15.674 0v-20.387a7.837 7.837 0 0 0-7.837-7.837z" />
  <path
    d="M492.456 233.44c-1.467-7.214-5.671-13.415-11.838-17.463l-55.484-36.418v-79.21c0-7.925-6.472-14.372-14.428-14.372h-36.907c-7.956 0-14.428 6.447-14.428 14.372v36.046l-79.848-52.41a27.662 27.662 0 0 0-15.215-4.543 27.687 27.687 0 0 0-14.882 4.328l-72.87 46.349a7.837 7.837 0 0 0 8.412 13.225l72.869-46.347a12.045 12.045 0 0 1 6.472-1.881c2.36 0 4.649.682 6.615 1.973l201.094 131.992a11.68 11.68 0 0 1 5.078 7.484c.623 3.064.01 6.182-1.723 8.777-2.216 3.318-5.948 5.299-9.983 5.299-2.353 0-4.635-.682-6.603-1.974l-190.349-124.94a7.837 7.837 0 0 0-8.507-.061L63.261 248.76a12.011 12.011 0 0 1-6.457 1.879c-4.104 0-7.87-2.033-10.075-5.439a11.553 11.553 0 0 1-1.597-8.801 11.684 11.684 0 0 1 5.188-7.412l106.434-67.698a7.837 7.837 0 0 0 2.406-10.819 7.834 7.834 0 0 0-10.818-2.406l-7.094 4.512v-35.738l15.688-15.563a69.044 69.044 0 0 0 22.409 3.736c17.925 0 35.544-6.916 48.519-19.787 18.6-18.451 24.88-46.357 16.007-71.068a16.817 16.817 0 0 0-3.993-6.279 17.016 17.016 0 0 0-6.275-3.938c-24.882-8.788-52.959-2.564-71.523 15.855-11.002 10.913-17.964 25.486-19.604 41.034a7.837 7.837 0 0 0 6.972 8.615 7.834 7.834 0 0 0 8.615-6.972c1.262-11.968 6.609-23.174 15.056-31.552 14.324-14.212 36.018-19 55.259-12.205.176.062.33.159.466.294.119.118.208.255.268.42 6.833 19.029 2.01 40.488-12.284 54.668C204.526 86.3 186.79 91.55 169.833 88.484l32.492-32.232a7.836 7.836 0 0 0 .045-11.082 7.836 7.836 0 0 0-11.082-.045l-50.037 49.637v-6.989a7.837 7.837 0 0 0-15.674 0v6.988L120.98 90.2c8.523-24.567 2.197-52.127-16.234-70.404C92.069 7.215 74.393 0 56.251 0a68.982 68.982 0 0 0-23.03 3.938 16.986 16.986 0 0 0-6.275 3.938 16.905 16.905 0 0 0-3.985 6.255c-8.878 24.739-2.599 52.645 16.001 71.093 12.682 12.578 30.36 19.791 48.499 19.791a68.926 68.926 0 0 0 22.429-3.741l15.688 15.563v45.706L41.91 215.76c-6.226 3.959-10.518 10.101-12.089 17.293-1.565 7.167-.233 14.504 3.75 20.661 5.105 7.888 13.791 12.597 23.233 12.597a27.656 27.656 0 0 0 14.87-4.328l25.387-16.148v220.487H71.123a7.837 7.837 0 0 0-7.837 7.837v30.004A7.837 7.837 0 0 0 71.123 512h379.951a7.837 7.837 0 0 0 7.837-7.837V474.16a7.837 7.837 0 0 0-7.837-7.837h-25.939V245.325l25.051 16.443a27.624 27.624 0 0 0 15.204 4.545c9.282 0 17.887-4.586 23.017-12.268 4.074-6.099 5.511-13.417 4.049-20.605zm-82.995-64.169-34.416-22.589V101.65h34.416v67.621zM108.175 77.495 73.833 43.429a7.838 7.838 0 0 0-11.039 11.127l34.201 33.928a53.672 53.672 0 0 1-9.535.858c-14.038 0-27.692-5.557-37.462-15.246-14.294-14.178-19.117-35.637-12.285-54.672a1.14 1.14 0 0 1 .279-.427c.123-.122.279-.219.45-.28a53.344 53.344 0 0 1 17.808-3.043c14.039 0 27.691 5.557 37.458 15.247 12.299 12.197 17.579 29.779 14.467 46.574zm335.062 404.503v14.329H78.96v-14.33h278.391a7.837 7.837 0 0 0 0-15.674h-47.055V339.501a7.837 7.837 0 0 0-7.837-7.837h-85.125a7.837 7.837 0 0 0-7.837 7.837v126.823h-96.763V235.868l151.338-96.258 145.389 95.428v231.287H393.92a7.837 7.837 0 0 0 0 15.674h49.316v-.001zM225.17 466.324V347.338h69.451v118.987H225.17z" />
</svg>
